<svg width="80" height="80" viewBox="0 0 80 80" fill="none" xmlns="http://www.w3.org/2000/svg">
<g clip-path="url(#clip0_6484_338407)">
<path d="M78.0799 40C78.0799 61.031 61.0309 78.08 39.9999 78.08C18.9689 78.08 1.91992 61.031 1.91992 40C1.91992 18.969 18.9689 1.92 39.9999 1.92C61.0309 1.92 78.0799 18.969 78.0799 40Z" stroke="black" stroke-width="2"/>
<path d="M12.658 22.8478L13.9172 21.1294C14.4348 20.423 15.1988 20.0606 15.906 20.5782C16.3028 20.8694 16.4348 21.2782 16.3332 21.7614L16.3476 21.7718C16.6596 21.5694 16.9596 21.5654 17.2732 21.7062C17.7564 21.919 18.1988 22.3622 18.3244 22.2614L18.378 22.3006L17.6476 23.2974C17.5092 23.3446 17.1116 22.9942 16.7484 22.839C16.4364 22.707 16.2156 22.7238 15.9988 23.019L15.6548 23.4886L16.8596 24.3718L16.118 25.383L12.6572 22.847L12.658 22.8478ZM14.9332 22.9606L15.3308 22.4182C15.5436 22.1278 15.5348 21.8758 15.2932 21.6982C15.066 21.5318 14.814 21.5702 14.6012 21.8606L14.1932 22.4174L14.9332 22.9598V22.9606Z" fill="black"/>
<path d="M16.8006 17.7214L19.2686 15.4678L19.9566 16.2214L18.4142 17.6294L18.807 18.059L20.0966 16.8822L20.7318 17.5782L19.4422 18.755L19.895 19.251L21.4814 17.803L22.2054 18.5966L19.6926 20.8902L16.7998 17.7214H16.8006Z" fill="black"/>
<path d="M21.3599 13.8582L22.4639 13.191L24.0103 14.6118C24.2919 14.8694 24.6215 15.2166 24.6215 15.2166L24.6319 15.2102C24.6319 15.2102 24.4823 14.7542 24.3799 14.3878L23.8295 12.3646L24.9183 11.7062L25.9575 16.0918L24.7559 16.8182L21.3599 13.8582Z" fill="black"/>
<path d="M27.2563 10.669L28.4195 10.2002L30.0235 14.1794L28.8603 14.6482L27.2563 10.669Z" fill="black"/>
<path d="M31.0923 9.27347L34.3483 8.52227L34.5779 9.51587L32.5435 9.98547L32.6747 10.5527L34.3763 10.1599L34.5883 11.0775L32.8867 11.4703L33.0379 12.1247L35.1307 11.6415L35.3723 12.6879L32.0571 13.4527L31.0931 9.27267L31.0923 9.27347Z" fill="black"/>
<path d="M37.0643 8.07184H38.3179L38.6299 9.54144C38.7323 10.0094 38.8403 10.735 38.8403 10.735H38.8523C38.8523 10.735 38.9659 10.0926 39.0739 9.60064L39.4035 8.07104H40.5371L40.8675 9.58864C40.9755 10.0862 41.0835 10.735 41.0835 10.735H41.0955C41.0955 10.735 41.2091 10.0086 41.3115 9.52864L41.6235 8.07024H42.9075L41.7803 12.3598H40.5139L40.1299 10.5422C40.0523 10.1702 39.9795 9.70864 39.9795 9.70864H39.9675C39.9675 9.70864 39.8955 10.1702 39.8179 10.5422L39.4459 12.3606H38.1619L37.0635 8.07104L37.0643 8.07184Z" fill="black"/>
<path d="M45.6546 8.52731L48.9115 9.27691L48.6826 10.2705L46.6482 9.80251L46.5178 10.3697L48.2194 10.7609L48.0082 11.6793L46.3067 11.2881L46.1563 11.9433L48.2498 12.4249L48.009 13.4713L44.6938 12.7089L45.6554 8.52811L45.6546 8.52731Z" fill="black"/>
<path d="M51.7035 10.191L53.5067 11.0086C54.6323 11.519 55.0867 12.595 54.5235 13.835C53.9587 15.0806 52.8979 15.443 51.6851 14.8926L49.9307 14.0974L51.7027 10.1902L51.7035 10.191ZM52.0211 13.9062C52.5459 14.1438 53.0651 13.9718 53.3651 13.3102C53.6579 12.6654 53.4819 12.1374 52.9355 11.8902L52.4163 11.655L51.5019 13.6718L52.0211 13.907V13.9062Z" fill="black"/>
<path d="M60.277 15.0898L61.937 16.5642C62.2506 16.8434 62.4162 17.1266 62.4714 17.4082C62.533 17.7274 62.4498 18.0474 62.2146 18.3114C61.9434 18.6162 61.6418 18.6938 61.2698 18.5714L61.2578 18.585C61.5082 19.0082 61.4466 19.4834 61.1242 19.8466C60.817 20.1922 60.4474 20.329 60.0746 20.2866C59.7618 20.2498 59.4514 20.0938 59.1194 19.7994L57.4282 18.297L60.277 15.0898ZM59.6698 18.9722C59.8714 19.1514 60.1186 19.1538 60.2898 18.961C60.473 18.7546 60.4122 18.5162 60.2194 18.3442L59.5554 17.7546L59.0018 18.3778L59.6706 18.9714L59.6698 18.9722ZM60.6722 17.6722C60.8514 17.8314 61.0482 17.8538 61.2002 17.6834C61.3474 17.5178 61.3098 17.3074 61.1306 17.1474L60.5522 16.633L60.0898 17.1538L60.673 17.6714L60.6722 17.6722Z" fill="black"/>
<path d="M63.3413 22.133L64.6724 19.2802L65.4948 20.3658L65.01 21.3058C64.846 21.6258 64.634 21.9522 64.634 21.9522L64.6413 21.9618C64.6413 21.9618 65.0164 21.8506 65.3684 21.7794L66.4044 21.5666L67.2084 22.6282L64.098 23.133L62.8972 24.0426L62.1396 23.0426L63.3404 22.133H63.3413Z" fill="black"/>
<path d="M49.4799 34.7368C49.1087 34.4272 48.6479 34.1888 48.0991 34.0232C47.5503 33.8576 46.9255 33.7728 46.2247 33.7704C45.5559 33.768 44.9471 33.8392 44.3967 33.9848C43.8463 34.1304 43.3687 34.3424 42.9631 34.62C42.5575 34.8984 42.2327 35.2344 41.9903 35.6288C41.7479 36.0232 41.6031 36.4648 41.5559 36.9528L44.1399 36.9624C44.2567 36.6416 44.4791 36.3984 44.8079 36.232C45.1367 36.0664 45.5543 35.984 46.0623 35.9864C46.6471 35.9888 47.0919 36.1112 47.3959 36.3528C47.6999 36.5944 47.8511 36.9376 47.8495 37.3816L47.8463 38.2496L45.2719 38.3937C43.9407 38.4657 42.9215 38.772 42.2127 39.312C41.5031 39.8528 41.1471 40.608 41.1431 41.5784C41.1415 42.0672 41.2247 42.5072 41.3935 42.9C41.5623 43.2928 41.7999 43.6296 42.1079 43.9104C42.4151 44.1912 42.7807 44.408 43.2047 44.5608C43.6279 44.7136 44.0967 44.7912 44.6111 44.7928C45.3047 44.7952 45.9239 44.6608 46.4687 44.3904C47.0127 44.1192 47.4239 43.74 47.7023 43.2528H47.8759L47.8703 44.6417L50.5887 44.6521L50.6167 37.3928C50.6191 36.8272 50.5223 36.3209 50.3287 35.8737C50.1343 35.4265 49.8511 35.048 49.4799 34.7376M47.8367 40.7856C47.8359 41.0552 47.7775 41.3057 47.6607 41.5369C47.5439 41.7681 47.3831 41.9697 47.1767 42.1425C46.9703 42.3153 46.7287 42.4488 46.4519 42.544C46.1751 42.6392 45.8735 42.6864 45.5455 42.6856C45.0567 42.684 44.6591 42.5696 44.3519 42.3432C44.0439 42.1176 43.8911 41.8049 43.8927 41.4065C43.8959 40.6353 44.4951 40.2105 45.6911 40.1313L47.8415 40.0048L47.8383 40.7856H47.8367Z" fill="black"/>
<path d="M58.6329 33.8172C57.8425 33.814 57.1818 33.9836 56.6498 34.3252C56.1186 34.6676 55.729 35.1396 55.4826 35.7428H55.309L55.3154 34.0356L52.597 34.0252L52.5562 44.658L55.3618 44.6684L55.385 38.5372C55.3866 38.19 55.4361 37.874 55.5329 37.5884C55.6305 37.3028 55.7706 37.0588 55.9554 36.8572C56.1394 36.6556 56.3602 36.5004 56.617 36.3924C56.8746 36.2844 57.1674 36.2308 57.4946 36.2324C58.1634 36.2348 58.6554 36.4252 58.9722 36.802C59.289 37.1788 59.4458 37.7372 59.4426 38.4764L59.4185 44.6844L62.2242 44.6948L62.2506 37.8212C62.2554 36.5484 61.949 35.5644 61.3314 34.8676C60.7138 34.1708 59.8138 33.8204 58.6314 33.8164" fill="black"/>
<path d="M67.0852 33.4827L67.0924 31.5563L64.2868 31.5459L64.2476 41.8323C64.246 42.3531 64.31 42.7963 64.4404 43.1635C64.5708 43.5299 64.7804 43.8315 65.0684 44.0675C65.3564 44.3035 65.7292 44.4763 66.1852 44.5875C66.6412 44.6987 67.1932 44.7555 67.8428 44.7579C68.1132 44.7587 68.3716 44.7467 68.6188 44.7219C68.866 44.6971 69.0772 44.6691 69.2508 44.6379L69.2588 42.4979C69.1236 42.5107 68.998 42.5195 68.8828 42.5251C68.7668 42.5315 68.6156 42.5339 68.43 42.5331C67.9484 42.5315 67.598 42.4211 67.3804 42.2011C67.1628 41.9819 67.0548 41.6411 67.0564 41.1779L67.0748 36.3963L69.2828 36.4051L69.2916 34.1971L67.7892 34.1915C67.3996 34.1899 67.0852 33.8731 67.0868 33.4835" fill="black"/>
<path d="M35.8336 42.0208H35.66L33.4544 33.952H33.2792L32.0584 37.9488C31.9616 38.2664 31.9672 38.6072 32.0752 38.9216L34.0496 44.6552L33.952 45.04C33.8344 45.4448 33.6232 45.736 33.3168 45.9144C33.0112 46.0928 32.5944 46.1816 32.0672 46.18H31.9328L31.7448 46.1784C31.6768 46.1784 31.6144 46.176 31.5568 46.1728C31.4992 46.1688 31.4568 46.164 31.4312 46.1576L31.4224 48.4136C31.448 48.42 31.5144 48.4256 31.62 48.4288C31.7256 48.432 31.84 48.436 31.9624 48.44C32.0848 48.444 32.1968 48.4456 32.3 48.4456H32.4928C33.1544 48.4488 33.7384 48.3864 34.2432 48.26C34.748 48.1336 35.1944 47.9248 35.5808 47.6336C35.968 47.3424 36.3048 46.9632 36.5928 46.4952C36.8808 46.0272 37.1384 45.4496 37.3664 44.7632L41.0712 33.98L38.1024 33.9688L35.8352 42.0192L35.8336 42.0208Z" fill="black"/>
<path d="M27.7136 27.14L24.6944 27.1288L19.8928 42.9528H19.7552L19.7768 37.2736C19.7792 36.708 19.6824 36.2016 19.4888 35.7544C19.2944 35.3072 19.0112 34.9288 18.64 34.6184C18.268 34.3088 17.808 34.0704 17.2592 33.9048C16.7104 33.7392 16.0856 33.6544 15.3848 33.652C14.716 33.6496 14.1072 33.7208 13.5568 33.8664C13.0064 34.012 12.5288 34.224 12.1224 34.5016C11.7168 34.78 11.392 35.116 11.1496 35.5104C10.9072 35.9048 10.7624 36.3464 10.7152 36.8344L13.2992 36.844C13.416 36.5232 13.6384 36.28 13.9672 36.1136C14.296 35.948 14.7136 35.8656 15.2216 35.868C15.8064 35.8704 16.2512 35.9928 16.5552 36.2344C16.8592 36.476 17.0104 36.8192 17.0088 37.2632L17.0056 38.1312L14.4312 38.2752C13.1008 38.3472 12.0808 38.6536 11.372 39.1936C10.6632 39.7344 10.3064 40.4896 10.3032 41.46C10.3016 41.9488 10.3848 42.3888 10.5536 42.7816C10.7224 43.1744 10.96 43.5112 11.268 43.792C11.576 44.0728 11.9408 44.2896 12.3648 44.4424C12.788 44.5952 13.2568 44.6728 13.7712 44.6744C14.4656 44.6768 15.084 44.5424 15.6288 44.272C16.1728 44.0008 16.584 43.6216 16.8624 43.1344H17.036L17.0304 44.5232L19.7488 44.5336L22.432 44.544L27.7128 27.1408L27.7136 27.14ZM16.9976 40.6656C16.9968 40.9352 16.9376 41.1856 16.8216 41.4168C16.7048 41.648 16.5432 41.8496 16.3376 42.0224C16.1312 42.1952 15.8896 42.3288 15.6128 42.424C15.336 42.5192 15.0344 42.5664 14.7064 42.5656C14.2176 42.564 13.82 42.4496 13.5128 42.2232C13.2048 41.9976 13.052 41.6848 13.0536 41.2864C13.0568 40.5152 13.656 40.0904 14.8512 40.0112L17.0016 39.8848L16.9984 40.6656H16.9976Z" fill="black"/>
<path d="M30.3819 27.1505L25.1011 44.5537L28.1203 44.5649L33.4003 27.1625L30.3819 27.1505Z" fill="black"/>
<path d="M14.3277 49.9502L15.6997 52.9582L14.7389 53.3966L13.8877 51.5294L13.2485 51.8206L13.9533 53.3654L13.0693 53.7686L12.3645 52.2238L10.9453 52.871L10.4253 51.7302L14.3285 49.9502H14.3277Z" fill="black"/>
<path d="M14.1707 54.7095C15.2363 53.9935 16.4971 54.1591 17.2395 55.2647C17.9819 56.3703 17.6651 57.6095 16.5987 58.3255C15.5331 59.0415 14.2707 58.8623 13.5283 57.7567C12.7859 56.6511 13.1043 55.4247 14.1707 54.7095ZM15.8899 57.2695C16.4731 56.8783 16.7451 56.3263 16.4107 55.8287C16.0763 55.3303 15.4627 55.3743 14.8795 55.7655C14.2963 56.1567 14.0291 56.7055 14.3635 57.2031C14.6979 57.7015 15.3067 57.6607 15.8899 57.2695Z" fill="black"/>
<path d="M18.9486 57.7607L20.4206 59.3007C21.0262 59.9343 21.2502 60.7495 20.6166 61.3551C20.2614 61.6951 19.835 61.7535 19.3766 61.5695L19.3638 61.5823C19.5086 61.9255 19.4598 62.2207 19.267 62.5055C18.9726 62.9447 18.4598 63.3023 18.5374 63.4439L18.4902 63.4895L17.6358 62.5959C17.6134 62.4511 18.0286 62.1207 18.2438 61.7903C18.4286 61.5055 18.4502 61.2855 18.1974 61.0215L17.795 60.6007L16.715 61.6335L15.8486 60.7271L18.9494 57.7615L18.9486 57.7607ZM18.4406 59.9815L18.9054 60.4671C19.1542 60.7271 19.4038 60.7623 19.6206 60.5551C19.8246 60.3599 19.8302 60.1055 19.5814 59.8455L19.1046 59.3471L18.4414 59.9815H18.4406Z" fill="black"/>
<path d="M24.5332 62.7666L25.6036 63.465L24.5908 67.9266L23.4756 67.1986L23.6436 66.5562L22.4276 65.7626L21.9076 66.1754L20.8628 65.4938L24.534 62.7666H24.5332ZM23.1356 65.1938L23.8796 65.6794L24.1124 64.8282C24.1716 64.6162 24.278 64.277 24.278 64.277L24.2684 64.2706C24.2684 64.2706 24.006 64.5074 23.8308 64.6442L23.1356 65.1938Z" fill="black"/>
<path d="M26.3148 66.4295C26.8292 65.2535 28.0196 64.7327 29.2012 65.2495C29.63 65.4367 29.9668 65.7151 30.166 66.0383C30.45 66.4967 30.494 67.0399 30.3244 67.5615L29.1756 67.0591C29.2828 66.7391 29.1444 66.3511 28.7708 66.1879C28.2268 65.9495 27.7612 66.2959 27.4796 66.9391C27.198 67.5823 27.3044 68.1783 27.8156 68.4023C28.2172 68.5775 28.574 68.4199 28.7668 68.0847L29.9268 68.5919C29.7036 69.0119 29.338 69.3095 28.9396 69.4567C28.4628 69.6343 27.982 69.5943 27.4108 69.3439C26.2124 68.8199 25.8012 67.6047 26.3156 66.4287L26.3148 66.4295Z" fill="black"/>
<path d="M31.0964 68.4226C31.4004 67.1754 32.4836 66.457 33.7364 66.7626C34.1908 66.873 34.5708 67.0898 34.8228 67.373C35.182 67.7754 35.3188 68.3026 35.242 68.8458L34.0235 68.549C34.0739 68.2154 33.8708 67.857 33.4748 67.761C32.898 67.6202 32.4988 68.0418 32.3324 68.7234C32.166 69.4058 32.3732 69.9746 32.9156 70.1066C33.3412 70.2106 33.666 69.993 33.7972 69.6298L35.0276 69.9298C34.8804 70.3818 34.5708 70.7386 34.2044 70.9514C33.7652 71.209 33.2852 71.2522 32.6788 71.1042C31.4084 70.7946 30.7932 69.669 31.0972 68.421L31.0964 68.4226Z" fill="black"/>
<path d="M36.4798 67.4055L39.8118 67.6567L39.735 68.6735L37.6526 68.5167L37.6086 69.0967L39.3494 69.2279L39.2782 70.1671L37.5374 70.0359L37.487 70.7063L39.6286 70.8679L39.5478 71.9391L36.1558 71.6831L36.479 67.4055H36.4798Z" fill="black"/>
<path d="M40.8311 70.5855L42.1111 70.4799C42.1815 70.8175 42.4575 70.9567 42.8703 70.9231C43.1151 70.9031 43.4063 70.7823 43.3855 70.5255C43.3639 70.2687 43.0719 70.2263 42.5343 70.1383C41.8015 70.0183 40.9143 69.8447 40.8391 68.9359C40.7583 67.9551 41.5287 67.5183 42.4911 67.4383C43.3759 67.3647 44.2199 67.6687 44.3151 68.5999L43.0775 68.7023C43.0223 68.4719 42.8423 68.3367 42.5015 68.3647C42.2263 68.3879 42.0455 68.5287 42.0599 68.7023C42.0807 68.9535 42.4487 68.9591 43.1007 69.0615C43.8327 69.1759 44.5735 69.3975 44.6487 70.3063C44.7255 71.2391 43.9359 71.8039 42.9255 71.8879C41.8135 71.9799 40.9303 71.5711 40.8311 70.5863V70.5855Z" fill="black"/>
<path d="M45.7982 70.0836L47.0438 69.7716C47.1678 70.0932 47.463 70.186 47.8646 70.0852C48.103 70.0252 48.371 69.8596 48.3086 69.6092C48.2462 69.3588 47.9502 69.3652 47.4062 69.3652C46.6638 69.3652 45.7606 69.338 45.539 68.454C45.2998 67.4996 45.9894 66.9436 46.9262 66.7084C47.7878 66.4924 48.6694 66.6556 48.9142 67.5588L47.7094 67.8604C47.6174 67.642 47.4182 67.5372 47.0862 67.6204C46.8182 67.6876 46.663 67.8564 46.7054 68.0252C46.767 68.27 47.1302 68.2156 47.791 68.2108C48.5318 68.2044 49.299 68.3036 49.5198 69.1884C49.747 70.0964 49.059 70.782 48.0758 71.0284C46.9934 71.2996 46.0558 71.0396 45.7982 70.0836Z" fill="black"/>
<path d="M49.6489 65.9673L50.8177 65.5137L52.3689 69.5137L51.2001 69.9673L49.6489 65.9673Z" fill="black"/>
<path d="M51.8301 65.127L53.7813 64.0678C54.1501 63.867 54.4733 63.8078 54.7565 63.8518C55.0773 63.9022 55.3501 64.0894 55.5189 64.4006C55.7133 64.759 55.6837 65.0686 55.4421 65.3774L55.4509 65.3934C55.9341 65.3022 56.3597 65.5214 56.5917 65.9478C56.8125 66.3542 56.8149 66.7486 56.6493 67.0838C56.5085 67.3646 56.2557 67.6046 55.8661 67.8166L53.8781 68.8958L51.8309 65.1262L51.8301 65.127ZM54.3925 65.6334C54.6037 65.519 54.6917 65.3414 54.5829 65.1414C54.4773 64.9462 54.2661 64.9102 54.0557 65.0254L53.3757 65.395L53.7077 66.0062L54.3933 65.6342L54.3925 65.6334ZM55.2741 67.0182C55.5117 66.8894 55.5973 66.6582 55.4741 66.4318C55.3421 66.1894 55.0973 66.1654 54.8709 66.2886L54.0909 66.7126L54.4885 67.4454L55.2741 67.019V67.0182Z" fill="black"/>
<path d="M55.8691 62.7699L56.8867 62.0371L59.3931 65.5187L58.3755 66.2515L55.8691 62.7699Z" fill="black"/>
<path d="M57.7737 61.3786L58.7025 60.5362L60.8633 62.9186L62.2233 61.685L62.945 62.4802L60.6562 64.557L57.7729 61.3794L57.7737 61.3786Z" fill="black"/>
<path d="M60.667 58.6063L61.4934 57.6631L64.7198 60.4911L63.8934 61.4343L60.667 58.6063Z" fill="black"/>
<path d="M62.1165 56.9803L64.1925 53.9219L65.0765 54.5219L64.3853 55.5395L67.0509 57.3491L66.3461 58.3867L63.6805 56.5771L62.9997 57.5803L62.1157 56.9803H62.1165Z" fill="black"/>
<path d="M67.6847 53.1663L64.5415 53.3463L65.1071 52.1071L66.1639 52.0887C66.5231 52.0815 66.9111 52.1135 66.9111 52.1135L66.9159 52.1023C66.9159 52.1023 66.6407 51.8247 66.4103 51.5479L65.7319 50.7367L66.2855 49.5255L68.2047 52.0247L69.5743 52.6503L69.0535 53.7911L67.6839 53.1655L67.6847 53.1663Z" fill="black"/>
</g>
<defs>
<clipPath id="clip0_6484_338407">
<rect width="80" height="80" fill="white"/>
</clipPath>
</defs>
</svg>
